<svg width="40" height="40" viewBox="0 0 40 40" fill="none" xmlns="http://www.w3.org/2000/svg">
<path d="M28.3333 10C31.09 10 33.3333 7.75667 33.3333 5C33.3333 2.24333 31.09 0 28.3333 0C26.1633 0 24.3317 1.39667 23.6417 3.33333H0V6.66667H23.6417C24.3317 8.60333 26.1633 10 28.3333 10ZM28.3333 3.33333C29.2517 3.33333 30 4.08 30 5C30 5.92 29.2517 6.66667 28.3333 6.66667C27.415 6.66667 26.6667 5.92 26.6667 5C26.6667 4.08 27.415 3.33333 28.3333 3.33333Z" transform="translate(3.33337 5)" fill="url(#paint0_linear)"/>
<path d="M11.6667 0C9.49667 0 7.665 1.39667 6.975 3.33333H0V6.66667H6.975C7.665 8.60333 9.49667 10 11.6667 10C13.8367 10 15.6683 8.60333 16.3583 6.66667H33.3333V3.33333H16.3583C15.6683 1.39667 13.8367 0 11.6667 0ZM11.6667 6.66667C10.7483 6.66667 10 5.92 10 5C10 4.08 10.7483 3.33333 11.6667 3.33333C12.585 3.33333 13.3333 4.08 13.3333 5C13.3333 5.92 12.585 6.66667 11.6667 6.66667Z" transform="translate(3.33337 15)" fill="url(#paint1_linear)"/>
<path d="M28.3333 0C26.1633 0 24.3317 1.39667 23.6417 3.33333H0V6.66667H23.6417C24.3317 8.60333 26.165 10 28.3333 10C31.09 10 33.3333 7.75667 33.3333 5C33.3333 2.24333 31.09 0 28.3333 0ZM28.3333 6.66667C27.415 6.66667 26.6667 5.92 26.6667 5C26.6667 4.08 27.415 3.33333 28.3333 3.33333C29.2517 3.33333 30 4.08 30 5C30 5.92 29.2517 6.66667 28.3333 6.66667Z" transform="translate(3.33337 25)" fill="url(#paint2_linear)"/>
<defs>
<linearGradient id="paint0_linear" x2="1" gradientUnits="userSpaceOnUse" gradientTransform="translate(-1.01349e-05 5) scale(33.3333 10)">
<stop stop-color="#6979F8"/>
<stop offset="1" stop-color="#A5AFFB"/>
</linearGradient>
<linearGradient id="paint1_linear" x2="1" gradientUnits="userSpaceOnUse" gradientTransform="translate(-1.01349e-05 5) scale(33.3333 10)">
<stop stop-color="#6979F8"/>
<stop offset="1" stop-color="#A5AFFB"/>
</linearGradient>
<linearGradient id="paint2_linear" x2="1" gradientUnits="userSpaceOnUse" gradientTransform="translate(-1.01349e-05 5) scale(33.3333 10)">
<stop stop-color="#6979F8"/>
<stop offset="1" stop-color="#A5AFFB"/>
</linearGradient>
</defs>
</svg>
