<svg width="40" height="40" viewBox="0 0 40 40" fill="none" xmlns="http://www.w3.org/2000/svg">
<path d="M28.5 30.7692C27.6 30.7692 27 30.1538 27 29.2308V15.8462C27 10 23.1 4.92308 18 3.53846C18 3.38462 18 3.23077 18 3.07692C18 1.38462 16.65 0 15 0C13.35 0 12 1.38462 12 3.07692C12 3.23077 12 3.38462 12 3.38462C10.05 3.84615 8.1 4.92308 6.6 6.46154C4.35 8.92308 3 12 3 15.3846V29.2308C3 30.1538 2.4 30.7692 1.5 30.7692H0V33.8462H10.8C10.65 34.3077 10.5 34.7692 10.5 35.3846C10.5 38 12.45 40 15 40C17.55 40 19.5 38 19.5 35.3846C19.5 34.7692 19.35 34.3077 19.2 33.8462H30V30.7692H28.5ZM6 29.2308V15.3846C6 12.9231 6.9 10.4615 8.7 8.76923C10.5 7.07692 12.9 6 15.3 6.15385C20.1 6.30769 24 10.6154 24 15.8462V29.2308C24 29.8462 24.15 30.3077 24.3 30.7692H5.7C5.85 30.3077 6 29.8462 6 29.2308ZM16.5 35.3846C16.5 36.3077 15.9 36.9231 15 36.9231C14.1 36.9231 13.5 36.3077 13.5 35.3846C13.5 34.4615 14.1 33.8462 15 33.8462C15.9 33.8462 16.5 34.4615 16.5 35.3846Z" transform="translate(5)" fill="url(#paint0_linear)"/>
<defs>
<linearGradient id="paint0_linear" x2="1" gradientUnits="userSpaceOnUse" gradientTransform="translate(-9.12144e-06 20) scale(30 40)">
<stop stop-color="#6979F8"/>
<stop offset="1" stop-color="#A5AFFB"/>
</linearGradient>
</defs>
</svg>
