<svg width="241" height="176" viewBox="0 0 241 176" fill="none" xmlns="http://www.w3.org/2000/svg">
<ellipse cx="120.493" cy="88" rx="87.7611" ry="88" fill="#DFE2FB"/>
<path fill-rule="evenodd" clip-rule="evenodd" d="M106.497 66.1103L106.497 64.9643C106.497 64.7121 106.397 64.4701 106.219 64.2918C106.042 64.1134 105.8 64.0132 105.549 64.0132L94.8402 64.0132C94.5886 64.0132 94.3473 64.1134 94.1694 64.2918C93.9915 64.4701 93.8916 64.7121 93.8916 64.9643L93.8916 66.1103" fill="#DFE2FB"/>
<path fill-rule="evenodd" clip-rule="evenodd" d="M149.857 66.1104L149.857 64.9644C149.857 64.8385 149.832 64.7139 149.784 64.5977C149.735 64.4816 149.664 64.3762 149.575 64.2878C149.486 64.1993 149.38 64.1295 149.264 64.0823C149.147 64.0352 149.023 64.0117 148.897 64.0133L138.188 64.0133C137.937 64.0133 137.696 64.1135 137.518 64.2918C137.34 64.4702 137.24 64.7121 137.24 64.9644L137.24 66.1104" fill="#DFE2FB"/>
<path fill-rule="evenodd" clip-rule="evenodd" d="M81 99L196 99L196 66L81 66L81 99Z" fill="#9FA8F1"/>
<path fill-rule="evenodd" clip-rule="evenodd" d="M173.718 98.9825L241 98.9825L241 66.0058L173.729 66.0058C171.554 65.9472 169.388 66.3305 167.361 67.1331C165.334 67.9356 163.487 69.1412 161.927 70.6786C160.368 72.2161 159.129 74.0542 158.282 76.0845C157.436 78.1149 157 80.2963 157 82.5C157 84.7037 157.436 86.8852 158.282 88.9155C159.129 90.9458 160.368 92.784 161.927 94.3214C163.487 95.8588 165.334 97.0644 167.361 97.8669C169.388 98.6695 171.554 99.0528 173.729 98.9942" fill="#BDC3F5"/>
<path fill-rule="evenodd" clip-rule="evenodd" d="M96 90L147 90L147 74L96 74L96 90Z" fill="white"/>
<path d="M175 90C179.418 90 183 86.4183 183 82C183 77.5817 179.418 74 175 74C170.582 74 167 77.5817 167 82C167 86.4183 170.582 90 175 90Z" fill="white"/>
<path fill-rule="evenodd" clip-rule="evenodd" d="M41 86.9365L29.0274 87L29 79.0635L40.9726 79L41 86.9365Z" fill="#9FA8F1"/>
<path fill-rule="evenodd" clip-rule="evenodd" d="M64 90.9138L46.6542 90.9999C45.7839 91.0048 44.9212 90.8224 44.1155 90.4632C43.3099 90.1041 42.5771 89.5752 41.959 88.9068C41.341 88.2384 40.8499 87.4437 40.5137 86.5681C40.1776 85.6924 40.003 84.7531 40.0001 83.8039L40.0001 81.3437C39.9956 80.3954 40.1625 79.4555 40.4911 78.5776C40.8196 77.6997 41.3036 76.901 41.9152 76.2271C42.5268 75.5531 43.2541 75.0172 44.0556 74.6498C44.8571 74.2825 45.7171 74.0909 46.5865 74.0861L63.9323 74L64 90.9138Z" fill="#9FA8F1"/>
<path fill-rule="evenodd" clip-rule="evenodd" d="M74 87.9499L64.0455 88L64 77.0501L73.9545 77L74 87.9499Z" fill="white"/>
<path d="M59.8874 149C59.3351 149.003 58.8894 149.452 58.8919 150.005C58.8944 150.557 59.3442 151.003 59.8964 151L59.8874 149ZM17.5096 83L17.5096 82L17.5096 83ZM29.1406 82L17.5096 82L17.5096 84L29.1406 84L29.1406 82ZM17.5096 117.019L127.163 117.019L127.163 115.019L17.5096 115.019L17.5096 117.019ZM127.235 148.694L59.8874 149L59.8964 151L127.244 150.694L127.235 148.694ZM143 132.857C143 141.575 135.953 148.654 127.235 148.694L127.244 150.694C137.063 150.649 145 142.676 145 132.857L143 132.857ZM127.163 117.019C135.909 117.019 143 124.11 143 132.857L145 132.857C145 123.005 137.014 115.019 127.163 115.019L127.163 117.019ZM2.88663e-06 99.5096C4.57744e-06 109.18 7.83933 117.019 17.5096 117.019L17.5096 115.019C8.9439 115.019 2 108.075 2 99.5096L2.88663e-06 99.5096ZM17.5096 82C7.83932 82 1.19582e-06 89.8393 2.88663e-06 99.5096L2 99.5096C2 90.9439 8.94389 84 17.5096 84L17.5096 82Z" fill="#BDC3F5"/>
</svg>
