<svg width="224" height="176" viewBox="0 0 224 176" fill="none" xmlns="http://www.w3.org/2000/svg">
<ellipse cx="103.493" cy="88" rx="87.7611" ry="88" fill="#DFE2FB"/>
<path fill-rule="evenodd" clip-rule="evenodd" d="M89.4973 66.1103L89.4973 64.9643C89.4973 64.7121 89.3974 64.4701 89.2195 64.2918C89.0416 64.1134 88.8003 64.0132 88.5487 64.0132L77.8402 64.0132C77.5886 64.0132 77.3473 64.1134 77.1694 64.2918C76.9915 64.4701 76.8916 64.7121 76.8916 64.9643L76.8916 66.1103" fill="#DFE2FB"/>
<path fill-rule="evenodd" clip-rule="evenodd" d="M132.857 66.1104L132.857 64.9644C132.857 64.8385 132.832 64.7139 132.784 64.5977C132.735 64.4816 132.664 64.3762 132.575 64.2878C132.486 64.1993 132.38 64.1295 132.264 64.0823C132.147 64.0352 132.023 64.0117 131.897 64.0133L121.188 64.0133C120.937 64.0133 120.696 64.1135 120.518 64.2918C120.34 64.4702 120.24 64.7121 120.24 64.9644L120.24 66.1104" fill="#DFE2FB"/>
<path fill-rule="evenodd" clip-rule="evenodd" d="M64 99L179 99L179 66L64 66L64 99Z" fill="#9FA8F1"/>
<path fill-rule="evenodd" clip-rule="evenodd" d="M156.718 98.9825L224 98.9825L224 66.0058L156.729 66.0058C154.554 65.9472 152.388 66.3305 150.361 67.1331C148.334 67.9356 146.487 69.1412 144.927 70.6786C143.368 72.2161 142.129 74.0542 141.282 76.0845C140.436 78.1149 140 80.2963 140 82.5C140 84.7037 140.436 86.8852 141.282 88.9155C142.129 90.9458 143.368 92.784 144.927 94.3214C146.487 95.8588 148.334 97.0644 150.361 97.8669C152.388 98.6695 154.554 99.0528 156.729 98.9942" fill="#BDC3F5"/>
<path fill-rule="evenodd" clip-rule="evenodd" d="M79 90L130 90L130 74L79 74L79 90Z" fill="white"/>
<path d="M99.7241 77.2727H97.7468V82.642H97.6786L94.5934 77.2727H92.6332V86H94.6104V80.6307H94.6786L97.7809 86H99.7241V77.2727ZM107.283 84.3636H103.431V82.4545H106.686V80.8182H103.431V78.9091H107.283V77.2727H101.453V86H107.283V84.3636ZM115.967 81.6534C115.967 78.7727 114.314 77.1534 112.149 77.1534C109.967 77.1534 108.297 78.7727 108.297 81.6534C108.297 84.517 109.967 86.1193 112.149 86.1193C114.314 86.1193 115.967 84.517 115.967 81.6534ZM113.973 81.6534C113.973 83.6136 113.223 84.3466 112.149 84.3466C111.075 84.3466 110.291 83.6136 110.291 81.6534C110.291 79.6932 111.075 78.9261 112.149 78.9261C113.223 78.9261 113.973 79.6932 113.973 81.6534Z" fill="#9FA8F1"/>
<path d="M158 90C162.418 90 166 86.4183 166 82C166 77.5817 162.418 74 158 74C153.582 74 150 77.5817 150 82C150 86.4183 153.582 90 158 90Z" fill="white"/>
<path fill-rule="evenodd" clip-rule="evenodd" d="M41 86.9365L29.0274 87L29 79.0635L40.9726 79L41 86.9365Z" fill="#9FA8F1"/>
<path fill-rule="evenodd" clip-rule="evenodd" d="M64 90.9138L46.6542 90.9999C45.7839 91.0048 44.9212 90.8224 44.1155 90.4632C43.3099 90.1041 42.5771 89.5752 41.959 88.9068C41.341 88.2384 40.8499 87.4437 40.5137 86.5681C40.1776 85.6924 40.003 84.7531 40.0001 83.8039L40.0001 81.3437C39.9956 80.3954 40.1625 79.4555 40.4911 78.5776C40.8196 77.6997 41.3036 76.901 41.9152 76.2271C42.5268 75.5531 43.2541 75.0172 44.0556 74.6498C44.8571 74.2825 45.7171 74.0909 46.5865 74.0861L64 74L64 90.9138Z" fill="#9FA8F1"/>
<path d="M42.8874 149C42.3351 149.003 41.8894 149.452 41.8919 150.005C41.8944 150.557 42.3442 151.003 42.8964 151L42.8874 149ZM29.1406 82L17.5096 82L17.5096 84L29.1406 84L29.1406 82ZM17.5096 117.019L110.163 117.019L110.163 115.019L17.5096 115.019L17.5096 117.019ZM110.235 148.694L42.8874 149L42.8964 151L110.244 150.694L110.235 148.694ZM126 132.857C126 141.575 118.953 148.654 110.235 148.694L110.244 150.694C120.063 150.649 128 142.676 128 132.857L126 132.857ZM110.163 117.019C118.909 117.019 126 124.11 126 132.857L128 132.857C128 123.005 120.014 115.019 110.163 115.019L110.163 117.019ZM2.88663e-06 99.5096C4.57744e-06 109.18 7.83933 117.019 17.5096 117.019L17.5096 115.019C8.9439 115.019 2 108.075 2 99.5096L2.88663e-06 99.5096ZM17.5096 82C7.83932 82 1.19582e-06 89.8393 2.88663e-06 99.5096L2 99.5096C2 90.9439 8.94389 84 17.5096 84L17.5096 82Z" fill="#BDC3F5"/>
</svg>
