<svg width="224" height="176" viewBox="0 0 224 176" fill="none" xmlns="http://www.w3.org/2000/svg">
<ellipse cx="103.493" cy="88" rx="87.7611" ry="88" fill="#DFE2FB"/>
<path fill-rule="evenodd" clip-rule="evenodd" d="M89.4974 66.1103L89.4974 64.9643C89.4974 64.7121 89.3975 64.4701 89.2196 64.2918C89.0417 64.1134 88.8004 64.0132 88.5489 64.0132L77.8403 64.0132C77.5887 64.0132 77.3474 64.1134 77.1696 64.2918C76.9917 64.4701 76.8917 64.7121 76.8917 64.9643L76.8917 66.1103" fill="#DFE2FB"/>
<path fill-rule="evenodd" clip-rule="evenodd" d="M132.857 66.1104L132.857 64.9644C132.857 64.8385 132.832 64.7139 132.784 64.5977C132.735 64.4816 132.665 64.3762 132.575 64.2878C132.486 64.1993 132.38 64.1295 132.264 64.0823C132.147 64.0352 132.023 64.0117 131.897 64.0133L121.189 64.0133C120.937 64.0133 120.696 64.1135 120.518 64.2918C120.34 64.4702 120.24 64.7121 120.24 64.9644L120.24 66.1104" fill="#DFE2FB"/>
<path fill-rule="evenodd" clip-rule="evenodd" d="M64 99L179 99L179 66L64 66L64 99Z" fill="#9FA8F1"/>
<path fill-rule="evenodd" clip-rule="evenodd" d="M156.718 98.9825L224 98.9825L224 66.0058L156.73 66.0058C154.554 65.9472 152.389 66.3305 150.362 67.1331C148.334 67.9356 146.487 69.1412 144.927 70.6786C143.368 72.2161 142.129 74.0542 141.282 76.0845C140.436 78.1149 140 80.2963 140 82.5C140 84.7037 140.436 86.8852 141.282 88.9155C142.129 90.9458 143.368 92.784 144.927 94.3214C146.487 95.8588 148.334 97.0644 150.362 97.8669C152.389 98.6695 154.554 99.0528 156.73 98.9942" fill="#BDC3F5"/>
<path fill-rule="evenodd" clip-rule="evenodd" d="M79.0001 90L130 90L130 74L79.0001 74L79.0001 90Z" fill="white"/>
<circle cx="118" cy="80" r="2" fill="#9FA8F1"/>
<path fill-rule="evenodd" clip-rule="evenodd" d="M100.22 84.1255C99.8744 83.6946 99.9436 83.0652 100.375 82.7198C100.805 82.3744 101.435 82.4436 101.78 82.8746C102.32 83.5476 103.139 83.981 104.061 83.9994C104.983 83.981 105.803 83.5476 106.342 82.8746C106.688 82.4436 107.317 82.3744 107.748 82.7198C108.179 83.0652 108.248 83.6946 107.903 84.1255C107.031 85.2129 105.711 85.9302 104.222 85.9952C104.189 85.9984 104.156 86 104.123 86C104.102 86 104.082 85.9999 104.061 85.9997C104.041 85.9999 104.021 86 104 86C103.967 86 103.934 85.9984 103.901 85.9952C102.412 85.9302 101.091 85.2129 100.22 84.1255Z" fill="#9FA8F1"/>
<circle cx="91" cy="80" r="2" fill="#9FA8F1"/>
<path d="M158 90C162.418 90 166 86.4183 166 82C166 77.5817 162.418 74 158 74C153.582 74 150 77.5817 150 82C150 86.4183 153.582 90 158 90Z" fill="white"/>
<path fill-rule="evenodd" clip-rule="evenodd" d="M41 86.9365L29.0274 87L29 79.0635L40.9726 79L41 86.9365Z" fill="#9FA8F1"/>
<path fill-rule="evenodd" clip-rule="evenodd" d="M64 90.9138L46.6542 90.9999C45.7839 91.0048 44.9212 90.8224 44.1155 90.4632C43.3099 90.1041 42.5771 89.5752 41.959 88.9068C41.341 88.2384 40.8499 87.4437 40.5137 86.5681C40.1776 85.6924 40.003 84.7531 40.0001 83.8039L40.0001 81.3437C39.9956 80.3954 40.1625 79.4555 40.4911 78.5776C40.8196 77.6997 41.3036 76.901 41.9152 76.2271C42.5268 75.5531 43.2541 75.0172 44.0556 74.6498C44.8571 74.2825 45.7171 74.0909 46.5865 74.0861L64 74L64 90.9138Z" fill="#9FA8F1"/>
<path d="M42.8874 149C42.3351 149.003 41.8894 149.452 41.8919 150.005C41.8944 150.557 42.3442 151.003 42.8964 151L42.8874 149ZM29.1406 82L17.5096 82L17.5096 84L29.1406 84L29.1406 82ZM17.5096 117.019L110.163 117.019L110.163 115.019L17.5096 115.019L17.5096 117.019ZM110.235 148.694L42.8874 149L42.8964 151L110.244 150.694L110.235 148.694ZM126 132.857C126 141.575 118.953 148.654 110.235 148.694L110.244 150.694C120.063 150.649 128 142.676 128 132.857L126 132.857ZM110.163 117.019C118.909 117.019 126 124.11 126 132.857L128 132.857C128 123.005 120.014 115.019 110.163 115.019L110.163 117.019ZM2.88663e-06 99.5096C4.57744e-06 109.18 7.83933 117.019 17.5096 117.019L17.5096 115.019C8.9439 115.019 2 108.075 2 99.5096L2.88663e-06 99.5096ZM17.5096 82C7.83932 82 1.19582e-06 89.8393 2.88663e-06 99.5096L2 99.5096C2 90.9439 8.94389 84 17.5096 84L17.5096 82Z" fill="#BDC3F5"/>
</svg>
