<svg width="34" height="33" viewBox="0 0 34 33" fill="none" xmlns="http://www.w3.org/2000/svg">
<path d="M15.1267 3.00989C15.7746 1.2772 18.2254 1.27719 18.8733 3.00989L21.4738 9.96443C21.7549 10.7161 22.458 11.227 23.2598 11.262L30.6776 11.5862C32.5257 11.6669 33.283 13.9978 31.8353 15.1494L26.0248 19.7717C25.3967 20.2713 25.1281 21.0979 25.3426 21.8713L27.3265 29.0261C27.8208 30.8087 25.838 32.2493 24.2954 31.2284L18.1038 27.1305C17.4346 26.6876 16.5654 26.6876 15.8962 27.1305L9.70458 31.2284C8.16197 32.2493 6.17919 30.8087 6.67349 29.0261L8.65743 21.8713C8.87187 21.0979 8.60328 20.2713 7.97524 19.7717L2.16467 15.1494C0.716992 13.9978 1.47434 11.6669 3.32244 11.5862L10.7402 11.262C11.542 11.227 12.2451 10.7161 12.5262 9.96443L15.1267 3.00989Z" stroke="#A5AFFB" stroke-width="2"/>
</svg>
