<svg width="32" height="31" viewBox="0 0 32 31" fill="none" xmlns="http://www.w3.org/2000/svg">
<path d="M14.1267 2.00989C14.7746 0.277196 17.2254 0.277194 17.8733 2.00989L20.4738 8.96443C20.7549 9.71612 21.458 10.227 22.2598 10.262L29.6776 10.5862C31.5257 10.6669 32.283 12.9978 30.8353 14.1494L25.0248 18.7717C24.3967 19.2713 24.1281 20.0979 24.3426 20.8713L26.3265 28.0261C26.8208 29.8087 24.838 31.2493 23.2954 30.2284L17.1038 26.1305C16.4346 25.6876 15.5654 25.6876 14.8962 26.1305L8.70458 30.2284C7.16197 31.2493 5.17919 29.8087 5.67349 28.0261L7.65743 20.8713C7.87187 20.0979 7.60328 19.2713 6.97524 18.7717L1.16467 14.1494C-0.283008 12.9978 0.474344 10.6669 2.32244 10.5862L9.74019 10.262C10.542 10.227 11.2451 9.71612 11.5262 8.96443L14.1267 2.00989Z" fill="url(#paint0_linear)"/>
<defs>
<linearGradient id="paint0_linear" x1="16" y1="17" x2="44.5" y2="-11.5" gradientUnits="userSpaceOnUse">
<stop stop-color="#6979F8"/>
<stop offset="1" stop-color="#A5AFFB"/>
</linearGradient>
</defs>
</svg>
