<svg width="40" height="40" viewBox="0 0 40 40" fill="none" xmlns="http://www.w3.org/2000/svg">
<path fill-rule="evenodd" clip-rule="evenodd" d="M22.9403 30.0261C22.6007 30.7954 22.7636 31.694 23.3517 32.2952L23.4265 32.37C23.8947 32.8377 24.1578 33.4723 24.1578 34.1341C24.1578 34.7959 23.8947 35.4306 23.4265 35.8983C22.9588 36.3665 22.3241 36.6296 21.6623 36.6296C21.0005 36.6296 20.3659 36.3665 19.8982 35.8983L19.8234 35.8235C19.2222 35.2354 18.3236 35.0725 17.5543 35.4121C16.8007 35.735 16.3108 36.4747 16.3075 37.2947V37.5066C16.3075 38.8837 15.1912 40.0001 13.814 40.0001C12.4369 40.0001 11.3205 38.8837 11.3205 37.5066V37.3944C11.3008 36.5499 10.7668 35.8034 9.97403 35.5118C9.20467 35.1722 8.3061 35.3352 7.70494 35.9232L7.63013 35.998C7.16243 36.4663 6.52777 36.7293 5.86597 36.7293C5.20417 36.7293 4.56952 36.4663 4.10182 35.998C3.63359 35.5303 3.37051 34.8957 3.37051 34.2339C3.37051 33.5721 3.63359 32.9374 4.10182 32.4697L4.17662 32.3949C4.76467 31.7937 4.9276 30.8952 4.58805 30.1258C4.26506 29.3722 3.52537 28.8823 2.70545 28.8791H2.49351C1.11638 28.8791 0 27.7627 0 26.3856C0 25.0084 1.11638 23.8921 2.49351 23.8921H2.60571C3.45018 23.8723 4.19674 23.3383 4.48831 22.5456C4.82786 21.7762 4.66493 20.8776 4.07688 20.2765L4.00208 20.2017C3.53385 19.734 3.27077 19.0993 3.27077 18.4375C3.27077 17.7757 3.53385 17.1411 4.00208 16.6734C4.46978 16.2051 5.10443 15.942 5.76623 15.942C6.42803 15.942 7.06269 16.2051 7.53039 16.6734L7.6052 16.7482C8.20636 17.3362 9.10493 17.4991 9.87429 17.1596H9.97403C10.7277 16.8366 11.2175 16.0969 11.2208 15.277V15.065C11.2208 13.6879 12.3372 12.5715 13.7143 12.5715C15.0914 12.5715 16.2078 13.6879 16.2078 15.065V15.1772C16.2111 15.9972 16.7009 16.7369 17.4545 17.0598C18.2239 17.3994 19.1225 17.2365 19.7236 16.6484L19.7984 16.5736C20.2661 16.1054 20.9008 15.8423 21.5626 15.8423C22.2244 15.8423 22.8591 16.1054 23.3268 16.5736C23.795 17.0413 24.0581 17.676 24.0581 18.3378C24.0581 18.9996 23.795 19.6342 23.3268 20.1019L23.2519 20.1767C22.6639 20.7779 22.501 21.6765 22.8405 22.4458V22.5456C23.1635 23.2992 23.9032 23.789 24.7231 23.7923H24.9351C26.3122 23.7923 27.4286 24.9087 27.4286 26.2858C27.4286 27.6629 26.3122 28.7793 24.9351 28.7793H24.8229C24.0029 28.7826 23.2633 29.2725 22.9403 30.0261ZM13.7143 30.8572C11.1895 30.8572 9.14282 28.8105 9.14282 26.2858C9.14282 23.7611 11.1895 21.7144 13.7143 21.7144C16.239 21.7144 18.2857 23.7611 18.2857 26.2858C18.2857 28.8105 16.239 30.8572 13.7143 30.8572ZM13.7143 29.1428C15.2923 29.1428 16.5715 27.8636 16.5715 26.2856C16.5715 24.7077 15.2923 23.4285 13.7143 23.4285C12.1364 23.4285 10.8572 24.7077 10.8572 26.2856C10.8572 27.8636 12.1364 29.1428 13.7143 29.1428Z" fill="url(#paint0_linear)"/>
<path fill-rule="evenodd" clip-rule="evenodd" d="M37.1948 10.9091C36.9826 11.3899 37.0845 11.9515 37.452 12.3273L37.4987 12.374C37.7914 12.6663 37.9558 13.063 37.9558 13.4766C37.9558 13.8902 37.7914 14.2869 37.4987 14.5792C37.2064 14.8719 36.8098 15.0363 36.3961 15.0363C35.9825 15.0363 35.5859 14.8719 35.2935 14.5792L35.2468 14.5325C34.8711 14.1649 34.3095 14.0631 33.8286 14.2753C33.3576 14.4772 33.0514 14.9395 33.0494 15.4519V15.5844C33.0494 16.4451 32.3516 17.1429 31.4909 17.1429C30.6302 17.1429 29.9325 16.4451 29.9325 15.5844V15.5143C29.9202 14.9865 29.5864 14.5199 29.0909 14.3377C28.6101 14.1254 28.0485 14.2273 27.6728 14.5948L27.626 14.6416C27.3337 14.9342 26.937 15.0986 26.5234 15.0986C26.1098 15.0986 25.7131 14.9342 25.4208 14.6416C25.1282 14.3492 24.9637 13.9526 24.9637 13.539C24.9637 13.1253 25.1282 12.7287 25.4208 12.4364L25.4676 12.3896C25.8351 12.0139 25.9369 11.4523 25.7247 10.9714C25.5228 10.5004 25.0605 10.1943 24.5481 10.1922H24.4156C23.5549 10.1922 22.8572 9.49447 22.8572 8.63377C22.8572 7.77306 23.5549 7.07532 24.4156 7.07532H24.4857C25.0135 7.06298 25.4801 6.72925 25.6624 6.23377C25.8746 5.75292 25.7728 5.19131 25.4052 4.81558L25.3585 4.76883C25.0658 4.47652 24.9014 4.07986 24.9014 3.66623C24.9014 3.25261 25.0658 2.85595 25.3585 2.56364C25.6508 2.271 26.0474 2.10657 26.4611 2.10657C26.8747 2.10657 27.2714 2.271 27.5637 2.56364L27.6104 2.61039C27.9862 2.97792 28.5478 3.07975 29.0286 2.86753H29.0909C29.562 2.66566 29.8681 2.20336 29.8702 1.69091V1.55844C29.8702 0.697738 30.5679 0 31.4286 0C32.2893 0 32.987 0.697738 32.987 1.55844V1.62857C32.9891 2.14102 33.2953 2.60332 33.7663 2.80519C34.2471 3.01741 34.8087 2.91558 35.1845 2.54805L35.2312 2.5013C35.5235 2.20866 35.9202 2.04423 36.3338 2.04423C36.7474 2.04423 37.1441 2.20866 37.4364 2.5013C37.729 2.79361 37.8935 3.19027 37.8935 3.6039C37.8935 4.01752 37.729 4.41418 37.4364 4.70649L37.3896 4.75325C37.0221 5.12898 36.9203 5.69058 37.1325 6.17143V6.23377C37.3344 6.70478 37.7967 7.01094 38.3091 7.01299H38.4416C39.3023 7.01299 40 7.71072 40 8.57143C40 9.43213 39.3023 10.1299 38.4416 10.1299H38.3715C37.859 10.1319 37.3967 10.4381 37.1948 10.9091ZM31.4286 11.4286C29.8506 11.4286 28.5714 10.1495 28.5714 8.5715C28.5714 6.99354 29.8506 5.71436 31.4286 5.71436C33.0065 5.71436 34.2857 6.99354 34.2857 8.5715C34.2857 10.1495 33.0065 11.4286 31.4286 11.4286ZM31.4285 10.3571C32.4148 10.3571 33.2143 9.55758 33.2143 8.57136C33.2143 7.58514 32.4148 6.78564 31.4285 6.78564C30.4423 6.78564 29.6428 7.58514 29.6428 8.57136C29.6428 9.55758 30.4423 10.3571 31.4285 10.3571Z" fill="url(#paint1_linear)"/>
<defs>
<linearGradient id="paint0_linear" x1="-8.33961e-06" y1="40.0001" x2="27.4286" y2="40.0001" gradientUnits="userSpaceOnUse">
<stop stop-color="#6979F8"/>
<stop offset="1" stop-color="#A5AFFB"/>
</linearGradient>
<linearGradient id="paint1_linear" x1="22.8572" y1="17.1429" x2="40" y2="17.1429" gradientUnits="userSpaceOnUse">
<stop stop-color="#6979F8"/>
<stop offset="1" stop-color="#A5AFFB"/>
</linearGradient>
</defs>
</svg>
