<svg width="14" height="27" viewBox="0 0 14 27" fill="none" xmlns="http://www.w3.org/2000/svg">
<path d="M6.9609 0C3.11654 0 0 2.90931 0 6.49739C0 9.06893 1.60423 11.2844 3.92587 12.3376V13.8597H5.17862V13.8829L3.91373 15.1778L5.17862 16.0633V16.3719L3.85361 17.7084L5.17862 18.6451V18.9008L3.85361 19.9681L5.17862 21.0019V21.4286L3.97444 22.5865L5.17862 24.1038V24.7669L3.85361 25.3065L5.17862 26.8545H5.8654H6.38338V13.8602H7.0823V26.855H9.17791V13.8602H9.9965V12.3381C12.3187 11.2849 13.9235 9.06893 13.9235 6.49793C13.923 2.90931 10.8058 0 6.9609 0ZM6.9609 5.21593C5.92321 5.21593 5.08207 4.43087 5.08207 3.46236C5.08207 2.49385 5.92321 1.70879 6.9609 1.70879C7.99859 1.70879 8.83972 2.49385 8.83972 3.46236C8.83972 4.43087 7.99859 5.21593 6.9609 5.21593Z" fill="url(#paint0_linear)"/>
<defs>
<linearGradient id="paint0_linear" x1="0" y1="13.4275" x2="13.9235" y2="13.4275" gradientUnits="userSpaceOnUse">
<stop stop-color="#B9D532"/>
<stop offset="1" stop-color="#5BBA47"/>
</linearGradient>
</defs>
</svg>
