<svg width="18" height="18" viewBox="0 0 18 18" fill="none" xmlns="http://www.w3.org/2000/svg">
<path d="M8.16743 7.10291C6.67796 6.4054 4.83107 6.6848 3.57834 7.93753C1.98722 9.52865 1.95858 12.0775 3.51434 13.6332C5.0701 15.189 7.61892 15.1604 9.21004 13.5692C10.4628 12.3165 10.7422 10.4696 10.0447 8.98015L12.1326 6.89225L14.0098 8.76949L15.9297 6.84959L14.0525 4.97236L15.0124 4.01241L13.1352 2.13517L8.16743 7.10291ZM7.33281 11.692C6.80243 12.2224 5.95283 12.2319 5.43424 11.7133C4.91565 11.1947 4.9252 10.3451 5.45557 9.81477C5.98594 9.2844 6.83555 9.27485 7.35414 9.79344C7.87272 10.312 7.86318 11.1616 7.33281 11.692Z" fill="currentColor"/>
</svg>
