<svg width="8" height="14" viewBox="0 0 8 14" fill="none" xmlns="http://www.w3.org/2000/svg">
<path d="M3.62893 0C1.62474 0 0 1.51671 0 3.38728C0 4.72791 0.836332 5.88288 2.04668 6.43196V7.22547H2.69977V7.23757L2.04035 7.91266L2.69977 8.37426V8.53516L2.009 9.23191L2.69977 9.72023V9.85356L2.009 10.4099L2.69977 10.9489V11.1714L2.07199 11.775L2.69977 12.566V12.9117L2.009 13.193L2.69977 14H3.05781H3.32785V7.22576H3.69222V14.0003H4.78472V7.22576H5.21148V6.43224C6.42212 5.88316 7.25876 4.72791 7.25876 3.38757C7.25845 1.51671 5.63341 0 3.62893 0ZM3.62893 2.71922C3.08795 2.71922 2.64944 2.30995 2.64944 1.80503C2.64944 1.30012 3.08795 0.890843 3.62893 0.890843C4.1699 0.890843 4.60841 1.30012 4.60841 1.80503C4.60841 2.30995 4.1699 2.71922 3.62893 2.71922Z" fill="#9A99A5"/>
</svg>
