<svg width="24" height="24" viewBox="0 0 24 24" fill="none" xmlns="http://www.w3.org/2000/svg">
<path d="M10.1804 0C8.70046 0 7.50132 1.24386 7.50132 2.77896C7.50132 4.31406 8.70046 5.55793 10.1804 5.55793C10.3647 5.55793 10.5457 5.53816 10.7204 5.50148C10.7332 3.82854 11.3417 2.30581 12.3362 1.14198C11.8486 0.451686 11.0677 0 10.1804 0ZM17.1459 1.11159C14.7787 1.11159 12.8594 3.10244 12.8594 5.55793C12.8594 8.01342 14.7787 10.0043 17.1459 10.0043C19.5131 10.0043 21.4323 8.01342 21.4323 5.55793C21.4323 3.10244 19.5131 1.11159 17.1459 1.11159ZM5.35809 8.89269C5.02542 8.89407 4.69498 8.949 4.37856 9.05552L1.52599 9.75141C0.630276 9.96992 0 10.7724 0 11.6944V18.1284L4.28647 16.6738L13.0268 19.8457C13.7255 20.0992 14.4955 20.0387 15.1491 19.6764L22.1946 15.768C22.6497 15.5155 22.8351 14.9562 22.6209 14.4819L22.1578 13.4566C21.9273 12.9462 21.3226 12.7247 20.8168 12.9652L14.021 16.1983L13.6234 15.6556L13.9373 14.9261C14.4249 13.7978 13.9315 12.4735 12.8385 11.9799L6.67877 9.19012C6.64073 9.17198 6.60235 9.15461 6.56365 9.13802C6.18074 8.97661 5.77141 8.89331 5.35809 8.89269Z" transform="translate(1 2)" fill="currentColor"/>
</svg>
