<svg width="24" height="24" viewBox="0 0 24 24" fill="none" xmlns="http://www.w3.org/2000/svg">
<path d="M11.1804 2C9.70046 2 8.50132 3.24386 8.50132 4.77896C8.50132 6.31406 9.70046 7.55793 11.1804 7.55793C11.3647 7.55793 11.5457 7.53816 11.7204 7.50148C11.7332 5.82854 12.3417 4.30581 13.3362 3.14198C12.8486 2.45169 12.0677 2 11.1804 2ZM18.1459 3.11159C15.7787 3.11159 13.8594 5.10244 13.8594 7.55793C13.8594 10.0134 15.7787 12.0043 18.1459 12.0043C20.5131 12.0043 22.4323 10.0134 22.4323 7.55793C22.4323 5.10244 20.5131 3.11159 18.1459 3.11159ZM6.35809 10.8927C6.02542 10.8941 5.69498 10.949 5.37856 11.0555L2.52599 11.7514C1.63028 11.9699 1 12.7724 1 13.6944V20.1284L5.28647 18.6738L14.0268 21.8457C14.7255 22.0992 15.4955 22.0387 16.1491 21.6764L23.1946 17.768C23.6497 17.5155 23.8351 16.9562 23.6209 16.4819L23.1578 15.4566C22.9273 14.9462 22.3226 14.7247 21.8168 14.9652L15.021 18.1983L14.6234 17.6556L14.9373 16.9261C15.4249 15.7978 14.9315 14.4735 13.8385 13.9799L7.67877 11.1901C7.64073 11.172 7.60235 11.1546 7.56365 11.138C7.18074 10.9766 6.77141 10.8933 6.35809 10.8927Z" fill="currentColor"/>
</svg>
