<svg width="22" height="20" viewBox="0 0 22 20" fill="none" xmlns="http://www.w3.org/2000/svg">
<path fill-rule="evenodd" clip-rule="evenodd" d="M0 3C0 1.34326 1.34314 0 3 0H19C20.6569 0 22 1.34326 22 3V17C22 18.6567 20.6569 20 19 20H3C1.34314 20 0 18.6567 0 17V3ZM9 15C9 14.4478 9.44775 14 10 14H17C17.5522 14 18 14.4478 18 15C18 15.5522 17.5522 16 17 16H10C9.44775 16 9 15.5522 9 15ZM10 9C9.44775 9 9 9.44775 9 10C9 10.5522 9.44775 11 10 11H17C17.5522 11 18 10.5522 18 10C18 9.44775 17.5522 9 17 9H10ZM9 5C9 4.44775 9.44775 4 10 4H17C17.5522 4 18 4.44775 18 5C18 5.55225 17.5522 6 17 6H10C9.44775 6 9 5.55225 9 5ZM5.5 6.5C6.32837 6.5 7 5.82861 7 5C7 4.17139 6.32837 3.5 5.5 3.5C4.67163 3.5 4 4.17139 4 5C4 5.82861 4.67163 6.5 5.5 6.5ZM7 10C7 10.8286 6.32837 11.5 5.5 11.5C4.67163 11.5 4 10.8286 4 10C4 9.17139 4.67163 8.5 5.5 8.5C6.32837 8.5 7 9.17139 7 10ZM5.5 16.5C6.32837 16.5 7 15.8286 7 15C7 14.1714 6.32837 13.5 5.5 13.5C4.67163 13.5 4 14.1714 4 15C4 15.8286 4.67163 16.5 5.5 16.5Z" fill="currentColor"/>
</svg>
