<svg width="24" height="24" viewBox="0 0 24 24" fill="none" xmlns="http://www.w3.org/2000/svg">
<path fill-rule="evenodd" clip-rule="evenodd" d="M1 5C1 3.34315 2.34315 2 4 2H20C21.6569 2 23 3.34315 23 5V19C23 20.6569 21.6569 22 20 22H4C2.34315 22 1 20.6569 1 19V5ZM10 17C10 16.4477 10.4477 16 11 16H18C18.5523 16 19 16.4477 19 17C19 17.5523 18.5523 18 18 18H11C10.4477 18 10 17.5523 10 17ZM11 11C10.4477 11 10 11.4477 10 12C10 12.5523 10.4477 13 11 13H18C18.5523 13 19 12.5523 19 12C19 11.4477 18.5523 11 18 11H11ZM10 7C10 6.44772 10.4477 6 11 6H18C18.5523 6 19 6.44772 19 7C19 7.55228 18.5523 8 18 8H11C10.4477 8 10 7.55228 10 7ZM6.5 8.5C7.32843 8.5 8 7.82843 8 7C8 6.17157 7.32843 5.5 6.5 5.5C5.67157 5.5 5 6.17157 5 7C5 7.82843 5.67157 8.5 6.5 8.5ZM8 12C8 12.8284 7.32843 13.5 6.5 13.5C5.67157 13.5 5 12.8284 5 12C5 11.1716 5.67157 10.5 6.5 10.5C7.32843 10.5 8 11.1716 8 12ZM6.5 18.5C7.32843 18.5 8 17.8284 8 17C8 16.1716 7.32843 15.5 6.5 15.5C5.67157 15.5 5 16.1716 5 17C5 17.8284 5.67157 18.5 6.5 18.5Z" fill="currentColor"/>
</svg>
