<svg width="32" height="32" viewBox="0 0 32 32" fill="none" xmlns="http://www.w3.org/2000/svg">
<path fill-rule="evenodd" clip-rule="evenodd" d="M2 5.00001H19.25C20.7679 5.00001 22 6.37013 22 7.88807V19.25C22 20.768 20.7679 22 19.25 22H2.75C1.23059 22 0 20.768 0 19.25V5.13807C0 3.62562 1.2251 2.21351 2.72253 1.99903L16.5289 0.0272306C18.0249 -0.185904 19.25 0.875619 19.25 2.38807V4.45057H17.1875V3.24061L2.0625 4.45057L2 5.00001ZM15 14C15 15.104 15.896 16 17 16C18.104 16 19 15.104 19 14C19 12.896 18.104 12 17 12C15.896 12 15 12.896 15 14Z" transform="translate(5 5)" fill="currentColor"/>
</svg>
