<svg width="17" height="17" viewBox="0 0 17 17" fill="none" xmlns="http://www.w3.org/2000/svg">
<path d="M16.707 2.121C17.0975 1.73053 17.0975 1.09747 16.707 0.707C16.3165 0.316535 15.6835 0.316535 15.293 0.707L8.707 7.293L2.121 0.706999C1.73053 0.316534 1.09747 0.316535 0.707 0.707C0.316535 1.09747 0.316535 1.73053 0.707 2.121L7.293 8.707L0.706999 15.293C0.316534 15.6835 0.316535 16.3165 0.707 16.707C1.09747 17.0975 1.73053 17.0975 2.121 16.707L8.707 10.121L15.293 16.707C15.6835 17.0975 16.3165 17.0975 16.707 16.707C17.0975 16.3165 17.0975 15.6835 16.707 15.293L10.121 8.707L16.707 2.121Z" fill="currentColor"/>
</svg>
