<svg width="22" height="20" viewBox="0 0 22 20" fill="none" xmlns="http://www.w3.org/2000/svg">
<path d="M16.6965 6.66675H9.19651C8.27604 6.66675 7.52985 7.41294 7.52985 8.33341V15.8334C7.52985 16.7539 8.27604 17.5001 9.19651 17.5001H16.6965C17.617 17.5001 18.3632 16.7539 18.3632 15.8334V8.33341C18.3632 7.41294 17.617 6.66675 16.6965 6.66675Z" stroke="#6979F8" stroke-width="1.5" stroke-linecap="round" stroke-linejoin="round"/>
<path d="M5.86316 13.3333H5.02983C4.5878 13.3333 4.16388 13.1577 3.85131 12.8452C3.53875 12.5326 3.36316 12.1087 3.36316 11.6667V4.16667C3.36316 3.72464 3.53875 3.30072 3.85131 2.98816C4.16388 2.67559 4.5878 2.5 5.02983 2.5H12.5298C12.9719 2.5 13.3958 2.67559 13.7083 2.98816C14.0209 3.30072 14.1965 3.72464 14.1965 4.16667V5" stroke="#6979F8" stroke-width="1.5" stroke-linejoin="round"/>
</svg>
