<svg width="32" height="32" viewBox="0 0 32 32" fill="none" xmlns="http://www.w3.org/2000/svg">
<path fill-rule="evenodd" clip-rule="evenodd" d="M21 13C18.7909 13 17 11.2091 17 9C17 6.79086 18.7909 5 21 5H23C25.2091 5 27 6.79086 27 9C27 11.2091 25.2091 13 23 13H21ZM27 23C27 25.7614 24.7614 28 22 28C19.2386 28 17 25.7614 17 23V20C17 17.2386 19.2386 15 22 15C24.7614 15 27 17.2386 27 20V23ZM5 24C5 26.2091 6.79086 28 9 28H11C13.2091 28 15 26.2091 15 24C15 21.7909 13.2091 20 11 20H9C6.79086 20 5 21.7909 5 24ZM15 13C15 15.7614 12.7614 18 10 18C7.23858 18 5 15.7614 5 13V10C5 7.23858 7.23858 5 10 5C12.7614 5 15 7.23858 15 10V13Z" fill="currentColor"/>
</svg>
