<svg width="32" height="32" viewBox="0 0 32 32" fill="none" xmlns="http://www.w3.org/2000/svg">
<path d="M14.3926 6.48019L13.8275 9.76919C13.7326 10.3171 14.1444 10.8197 14.6882 10.8197H21.8327C22.6811 10.8197 23.4071 10.1954 23.5549 9.3395L24.1201 6.0505C24.2142 5.50256 23.8031 5 23.26 5H16.1148C15.2657 5 14.5404 5.62425 14.3926 6.48019Z" fill="currentColor"/>
<path d="M12.282 22.5952L11.7169 25.8842C11.622 26.4321 12.0338 26.9347 12.5776 26.9347H21.8678C22.7169 26.9347 23.4422 26.3104 23.59 25.4545L24.1551 22.1655C24.25 21.6176 23.8382 21.115 23.2944 21.115H14.0042C13.1551 21.115 12.4298 21.7392 12.282 22.5952Z" fill="currentColor"/>
<path d="M5.57891 14.5377L5.01379 17.8267C4.9196 18.3746 5.33073 18.8772 5.87454 18.8772H18.3499C19.1983 18.8772 19.9243 18.2529 20.0714 17.397L20.6372 14.108C20.7314 13.5601 20.3196 13.0575 19.7765 13.0575H7.3011C6.45204 13.0575 5.72673 13.6817 5.57891 14.5377Z" fill="currentColor"/>
</svg>
