<svg width="32" height="32" viewBox="0 0 32 32" fill="none" xmlns="http://www.w3.org/2000/svg">
<path d="M5.21755 3.50011C5.09279 3.52712 4.97196 3.57146 4.85982 3.63137C0.567789 5.83153 -0.747078 10.3486 0.38821 14.088C1.5235 17.8261 5.08147 21 9.95745 21C14.7642 21 18.3672 17.9913 19.572 14.3064C20.7754 10.6214 19.4891 6.1534 15.1004 3.67449C14.4794 3.31944 13.5851 3.54862 13.2217 4.15568C12.8588 4.76274 13.0929 5.63819 13.7139 5.99324C17.1349 7.92501 17.8385 10.8855 16.9781 13.5185C16.1178 16.1514 13.624 18.3311 9.95774 18.3311C6.27184 18.3311 3.80824 16.0208 2.98203 13.2996C2.15553 10.5787 2.91478 7.63227 6.11187 5.99324C6.65375 5.70441 6.94051 5.02371 6.76408 4.44521C6.58779 3.86657 5.96677 3.45076 5.35177 3.49948C5.30698 3.49738 5.26219 3.49801 5.21755 3.50011Z" transform="translate(6 6)" fill="currentColor"/>
<path d="M8.75 1C8.75 0.447715 9.19771 0 9.75 0H10.25C10.8023 0 11.25 0.447715 11.25 1V10C11.25 10.5523 10.8023 11 10.25 11H9.75C9.19771 11 8.75 10.5523 8.75 10V1Z" transform="translate(6 6)" fill="currentColor"/>
</svg>
