<svg width="32" height="32" viewBox="0 0 32 32" fill="none" xmlns="http://www.w3.org/2000/svg">
<path fill-rule="evenodd" clip-rule="evenodd" d="M24.0727 19.2727C23.7756 19.9459 23.9182 20.7322 24.4327 21.2582L24.4982 21.3236C24.9079 21.7329 25.1381 22.2882 25.1381 22.8673C25.1381 23.4463 24.9079 24.0017 24.4982 24.4109C24.0889 24.8206 23.5336 25.0508 22.9545 25.0508C22.3755 25.0508 21.8202 24.8206 21.4109 24.4109L21.3455 24.3455C20.8194 23.8309 20.0332 23.6883 19.36 23.9855C18.7006 24.2681 18.272 24.9153 18.2691 25.6327V25.8182C18.2691 27.0232 17.2923 28 16.0873 28C14.8823 28 13.9055 27.0232 13.9055 25.8182V25.72C13.8882 24.9811 13.421 24.3279 12.7273 24.0727C12.0541 23.7756 11.2678 23.9182 10.7418 24.4327L10.6764 24.4982C10.2671 24.9079 9.7118 25.1381 9.13273 25.1381C8.55365 25.1381 7.99833 24.9079 7.58909 24.4982C7.1794 24.0889 6.94919 23.5336 6.94919 22.9545C6.94919 22.3755 7.1794 21.8202 7.58909 21.4109L7.65455 21.3455C8.16909 20.8194 8.31165 20.0332 8.01455 19.36C7.73193 18.7006 7.0847 18.272 6.36727 18.2691H6.18182C4.97683 18.2691 4 17.2923 4 16.0873C4 14.8823 4.97683 13.9055 6.18182 13.9055H6.28C7.0189 13.8882 7.67215 13.421 7.92727 12.7273C8.22438 12.0541 8.08182 11.2678 7.56727 10.7418L7.50182 10.6764C7.09212 10.2671 6.86192 9.7118 6.86192 9.13273C6.86192 8.55365 7.09212 7.99833 7.50182 7.58909C7.91106 7.1794 8.46638 6.94919 9.04545 6.94919C9.62453 6.94919 10.1799 7.1794 10.5891 7.58909L10.6545 7.65455C11.1806 8.16909 11.9668 8.31165 12.64 8.01455H12.7273C13.3867 7.73193 13.8153 7.0847 13.8182 6.36727V6.18182C13.8182 4.97683 14.795 4 16 4C17.205 4 18.1818 4.97683 18.1818 6.18182V6.28C18.1847 6.99743 18.6133 7.64465 19.2727 7.92727C19.9459 8.22438 20.7322 8.08182 21.2582 7.56727L21.3236 7.50182C21.7329 7.09212 22.2882 6.86192 22.8673 6.86192C23.4463 6.86192 24.0017 7.09212 24.4109 7.50182C24.8206 7.91106 25.0508 8.46638 25.0508 9.04545C25.0508 9.62453 24.8206 10.1799 24.4109 10.5891L24.3455 10.6545C23.8309 11.1806 23.6883 11.9668 23.9855 12.64V12.7273C24.2681 13.3867 24.9153 13.8153 25.6327 13.8182H25.8182C27.0232 13.8182 28 14.795 28 16C28 17.205 27.0232 18.1818 25.8182 18.1818H25.72C25.0026 18.1847 24.3553 18.6133 24.0727 19.2727ZM16 20C13.7909 20 12 18.2091 12 16C12 13.7909 13.7909 12 16 12C18.2091 12 20 13.7909 20 16C20 18.2091 18.2091 20 16 20ZM16 18.5C17.3807 18.5 18.5 17.3807 18.5 16C18.5 14.6193 17.3807 13.5 16 13.5C14.6193 13.5 13.5 14.6193 13.5 16C13.5 17.3807 14.6193 18.5 16 18.5Z" fill="currentColor"/>
</svg>
