<svg width="32" height="32" viewBox="0 0 32 32" fill="none" xmlns="http://www.w3.org/2000/svg">
<path fill-rule="evenodd" clip-rule="evenodd" d="M20.0727 15.2727C19.7756 15.9459 19.9182 16.7322 20.4327 17.2582L20.4982 17.3236C20.9079 17.7329 21.1381 18.2882 21.1381 18.8673C21.1381 19.4463 20.9079 20.0017 20.4982 20.4109C20.0889 20.8206 19.5336 21.0508 18.9545 21.0508C18.3755 21.0508 17.8202 20.8206 17.4109 20.4109L17.3455 20.3455C16.8194 19.8309 16.0332 19.6883 15.36 19.9855C14.7006 20.2681 14.272 20.9153 14.2691 21.6327V21.8182C14.2691 23.0232 13.2923 24 12.0873 24C10.8823 24 9.90545 23.0232 9.90545 21.8182V21.72C9.88817 20.9811 9.42095 20.3279 8.72727 20.0727C8.05408 19.7756 7.26784 19.9182 6.74182 20.4327L6.67636 20.4982C6.26712 20.9079 5.7118 21.1381 5.13273 21.1381C4.55365 21.1381 3.99833 20.9079 3.58909 20.4982C3.1794 20.0889 2.94919 19.5336 2.94919 18.9545C2.94919 18.3755 3.1794 17.8202 3.58909 17.4109L3.65455 17.3455C4.16909 16.8194 4.31165 16.0332 4.01455 15.36C3.73193 14.7006 3.0847 14.272 2.36727 14.2691H2.18182C0.976833 14.2691 0 13.2923 0 12.0873C0 10.8823 0.976833 9.90545 2.18182 9.90545H2.28C3.0189 9.88817 3.67215 9.42095 3.92727 8.72727C4.22438 8.05408 4.08182 7.26784 3.56727 6.74182L3.50182 6.67636C3.09212 6.26712 2.86192 5.7118 2.86192 5.13273C2.86192 4.55365 3.09212 3.99833 3.50182 3.58909C3.91106 3.1794 4.46638 2.94919 5.04545 2.94919C5.62453 2.94919 6.17985 3.1794 6.58909 3.58909L6.65455 3.65455C7.18057 4.16909 7.96681 4.31165 8.64 4.01455H8.72727C9.3867 3.73193 9.81532 3.0847 9.81818 2.36727V2.18182C9.81818 0.976833 10.795 0 12 0C13.205 0 14.1818 0.976833 14.1818 2.18182V2.28C14.1847 2.99743 14.6133 3.64465 15.2727 3.92727C15.9459 4.22438 16.7322 4.08182 17.2582 3.56727L17.3236 3.50182C17.7329 3.09212 18.2882 2.86192 18.8673 2.86192C19.4463 2.86192 20.0017 3.09212 20.4109 3.50182C20.8206 3.91106 21.0508 4.46638 21.0508 5.04545C21.0508 5.62453 20.8206 6.17985 20.4109 6.58909L20.3455 6.65455C19.8309 7.18057 19.6883 7.96681 19.9855 8.64V8.72727C20.2681 9.3867 20.9153 9.81532 21.6327 9.81818H21.8182C23.0232 9.81818 24 10.795 24 12C24 13.205 23.0232 14.1818 21.8182 14.1818H21.72C21.0026 14.1847 20.3553 14.6133 20.0727 15.2727ZM12.4286 16.8571C9.98274 16.8571 8 14.8744 8 12.4286C8 9.98274 9.98274 8 12.4286 8C14.8744 8 16.8571 9.98274 16.8571 12.4286C16.8571 14.8744 14.8744 16.8571 12.4286 16.8571ZM12.4286 14.8571C13.7698 14.8571 14.8571 13.7698 14.8571 12.4286C14.8571 11.0873 13.7698 10 12.4286 10C11.0873 10 10 11.0873 10 12.4286C10 13.7698 11.0873 14.8571 12.4286 14.8571Z" transform="translate(4 4)" fill="currentColor"/>
</svg>
