<svg width="32" height="32" viewBox="0 0 32 32" fill="none" xmlns="http://www.w3.org/2000/svg">
<path opacity="0.5" fill-rule="evenodd" clip-rule="evenodd" d="M26 13.917C25.6748 13.9716 25.3407 14 25 14C21.6863 14 19 11.3137 19 8C19 7.40388 19.0869 6.82806 19.2488 6.28454L18.058 5.57003C16.7912 4.80999 15.2087 4.80999 13.942 5.57003L7.94201 9.17003C6.73719 9.89292 6 11.1949 6 12.6V20.0705C6 21.4755 6.7372 22.7776 7.94201 23.5005L13.942 27.1004C15.2087 27.8605 16.7912 27.8605 18.058 27.1005L24.058 23.5004C25.2628 22.7776 26 21.4755 26 20.0705V13.917ZM15.0001 13.8352H17.0001L16.9545 21.3352H15.0355L15.0001 13.8352ZM17.25 11.5852C17.25 12.2652 16.7383 12.8352 16 12.8352C15.2617 12.8352 14.75 12.2652 14.75 11.5852C14.75 10.9396 15.2617 10.3352 16 10.3352C16.7383 10.3352 17.25 10.9396 17.25 11.5852Z" fill="currentColor"/>
<path opacity="0.5" d="M29 8C29 10.2091 27.2091 12 25 12C22.7909 12 21 10.2091 21 8C21 5.79086 22.7909 4 25 4C27.2091 4 29 5.79086 29 8Z" fill="#9A99A5"/>
</svg>
