<svg width="32" height="32" viewBox="0 0 32 32" fill="none" xmlns="http://www.w3.org/2000/svg">
<path fill-rule="evenodd" clip-rule="evenodd" d="M13.942 5.57001C15.2087 4.81 16.7912 4.81 18.058 5.57001L24.058 9.1701C25.2628 9.89301 26 11.195 26 12.6V20.0705C26 21.4755 25.2628 22.7775 24.058 23.5004L18.058 27.1005C16.7912 27.8605 15.2087 27.8605 13.942 27.1005L7.94202 23.5004C6.73718 22.7775 6 21.4755 6 20.0705V12.6C6 11.195 6.73718 9.89301 7.94202 9.1701L13.942 5.57001ZM17.0001 13.8353H15.0001L15.0355 21.3353H16.9545L17.0001 13.8353ZM16 12.8353C16.7383 12.8353 17.25 12.2652 17.25 11.5853C17.25 10.9396 16.7383 10.3353 16 10.3353C15.2617 10.3353 14.75 10.9396 14.75 11.5853C14.75 12.2652 15.2617 12.8353 16 12.8353Z" fill="currentColor"/>
<path d="M29.25 8C29.25 10.3472 27.3472 12.25 25 12.25C22.6528 12.25 20.75 10.3472 20.75 8C20.75 5.65279 22.6528 3.75 25 3.75C27.3472 3.75 29.25 5.65279 29.25 8Z" fill="#FF6A4A" stroke="#EDEEF2" stroke-width="1.5"/>
</svg>
